<svg aria-hidden="true" style="position: absolute; width: 0; height: 0; overflow: hidden;" version="1.1"
     xmlns="http://www.w3.org/2000/svg" xmlns:xlink="http://www.w3.org/1999/xlink">
    <defs>
        <symbol id="user" viewBox="0 0 24 24" stroke-width="2" fill="none">
            <path fill-rule="evenodd" clip-rule="evenodd" d="M9.52825 10.6634C10.2136 11.3487 11.0375 11.6914 12 11.6914C12.9625 11.6914 13.7864 11.3487 14.4718 10.6634C15.1573 9.97791 15.5 9.15391 15.5 8.19141C15.5 7.22891 15.1573 6.40499 14.4718 5.71966C13.7864 5.03416 12.9625 4.69141 12 4.69141C11.0375 4.69141 10.2136 5.03416 9.52825 5.71966C8.84275 6.40499 8.5 7.22891 8.5 8.19141C8.5 9.15391 8.84275 9.97791 9.52825 10.6634ZM4.5 17.0837V19.3069H6V17.8069V17.0837V17H6.00341C6.01746 16.8293 6.07499 16.6697 6.176 16.5212C6.29333 16.3488 6.45258 16.2082 6.65375 16.0992C7.51542 15.6748 8.39392 15.3533 9.28925 15.1347C10.1848 14.9162 11.0883 14.8069 12 14.8069C12.9117 14.8069 13.8152 14.9162 14.7107 15.1347C15.6061 15.3533 16.4846 15.6748 17.3462 16.0992C17.5474 16.2082 17.7067 16.3488 17.824 16.5212C17.925 16.6697 17.9825 16.8293 17.9966 17H18V17.0837V17.8069V19.3069H19.5V17.0837C19.5 16.594 19.367 16.1405 19.101 15.7232C18.835 15.3058 18.4795 14.985 18.0345 14.7607C17.0462 14.2762 16.0491 13.9127 15.0433 13.6704C14.0374 13.4281 13.023 13.3069 12 13.3069C10.977 13.3069 9.96258 13.4281 8.95675 13.6704C7.95092 13.9127 6.95383 14.2762 5.9655 14.7607C5.5205 14.985 5.165 15.3058 4.899 15.7232C4.633 16.1405 4.5 16.594 4.5 17.0837ZM13.4125 9.60391C13.0208 9.99557 12.55 10.1914 12 10.1914C11.45 10.1914 10.9792 9.99557 10.5875 9.60391C10.1958 9.21224 10 8.74141 10 8.19141C10 7.64141 10.1958 7.17057 10.5875 6.77891C10.9792 6.38724 11.45 6.19141 12 6.19141C12.55 6.19141 13.0208 6.38724 13.4125 6.77891C13.8042 7.17057 14 7.64141 14 8.19141C14 8.74141 13.8042 9.21224 13.4125 9.60391Z" fill="currentColor"/>
        </symbol>
        <symbol id="heart" viewBox="0 0 24 24">
            <path d="M12 20.3252L10.8963 19.3329C9.23858 17.8291 7.86775 16.5369 6.78375 15.4562C5.69975 14.3754 4.84075 13.4134 4.20675 12.5704C3.57275 11.7276 3.12983 10.9587 2.878 10.2637C2.626 9.56885 2.5 8.86377 2.5 8.14844C2.5 6.72927 2.9785 5.5411 3.9355 4.58394C4.89267 3.62694 6.08083 3.14844 7.5 3.14844C8.373 3.14844 9.198 3.3526 9.975 3.76094C10.752 4.16927 11.427 4.75485 12 5.51769C12.573 4.75485 13.248 4.16927 14.025 3.76094C14.802 3.3526 15.627 3.14844 16.5 3.14844C17.9192 3.14844 19.1073 3.62694 20.0645 4.58394C21.0215 5.5411 21.5 6.72927 21.5 8.14844C21.5 8.86377 21.374 9.56885 21.122 10.2637C20.8702 10.9587 20.4272 11.7276 19.7932 12.5704C19.1593 13.4134 18.3018 14.3754 17.221 15.4562C16.1403 16.5369 14.7679 17.8291 13.1038 19.3329L12 20.3252ZM12 18.2984C13.6 16.8588 14.9167 15.6248 15.95 14.5964C16.9833 13.5683 17.8 12.675 18.4 11.9167C19 11.1584 19.4167 10.4849 19.65 9.89644C19.8833 9.3081 20 8.72544 20 8.14844C20 7.14844 19.6667 6.3151 19 5.64844C18.3333 4.98177 17.5 4.64844 16.5 4.64844C15.7103 4.64844 14.9805 4.87244 14.3105 5.32044C13.6407 5.7686 13.1102 6.39202 12.7192 7.19069H11.2808C10.8833 6.38552 10.3512 5.76052 9.6845 5.31569C9.01783 4.87085 8.28967 4.64844 7.5 4.64844C6.50633 4.64844 5.67458 4.98177 5.00475 5.64844C4.33492 6.3151 4 7.14844 4 8.14844C4 8.72544 4.11667 9.3081 4.35 9.89644C4.58333 10.4849 5 11.1584 5.6 11.9167C6.2 12.675 7.01667 13.5667 8.05 14.5917C9.08333 15.6167 10.4 16.8523 12 18.2984Z"/>
        </symbol>
        <symbol id="heart-filled" viewBox="0 0 24 24">
            <path d="M12 20.3267L10.8963 19.3345C9.23858 17.8307 7.86775 16.5384 6.78375 15.4577C5.69975 14.3769 4.84075 13.415 4.20675 12.572C3.57275 11.7292 3.12983 10.9602 2.878 10.2652C2.626 9.57041 2.5 8.86533 2.5 8.14999C2.5 6.73083 2.9785 5.54266 3.9355 4.58549C4.89267 3.62849 6.08083 3.14999 7.5 3.14999C8.373 3.14999 9.198 3.35416 9.975 3.76249C10.752 4.17083 11.427 4.75641 12 5.51924C12.573 4.75641 13.248 4.17083 14.025 3.76249C14.802 3.35416 15.627 3.14999 16.5 3.14999C17.9192 3.14999 19.1073 3.62849 20.0645 4.58549C21.0215 5.54266 21.5 6.73083 21.5 8.14999C21.5 8.86533 21.374 9.57041 21.122 10.2652C20.8702 10.9602 20.4272 11.7292 19.7932 12.572C19.1593 13.415 18.3018 14.3769 17.221 15.4577C16.1403 16.5384 14.7679 17.8307 13.1038 19.3345L12 20.3267Z" fill="#1D1D1D"/>
        </symbol>
        <symbol id="arrow-down" viewBox="0 0 24 24">
            <path d="M11.6998 13.2484L16.2998 8.64844L17.3535 9.70219L11.6998 15.3559L6.04601 9.70219L7.09976 8.64844L11.6998 13.2484Z" fill="#1D1D1D"/>
        </symbol>
        <symbol id="arrow-right" viewBox="0 0 24 24">
            <path d="M16.627 11.25L10.9307 5.55375L12 4.5L19.5 12L12 19.5L10.9307 18.4462L16.627 12.75H4.5L4.5 11.25H16.627Z" fill="#1D1D1D"/>
        </symbol>
        <symbol id="burger-menu" viewBox="0 0 24 24">
            <path d="M3.5 17.6345V16.1348H20.5V17.6345H3.5ZM3.5 12.75V11.25H20.5V12.75H3.5ZM3.5 7.86526V6.36551H20.5V7.86526H3.5Z" fill="#1D1D1D"/>
        </symbol>
        <symbol id="cross" viewBox="0 0 24 24">
            <path d="M6.39994 18.6538L5.34619 17.6L10.9462 12L5.34619 6.4L6.39994 5.34625L11.9999 10.9463L17.5999 5.34625L18.6537 6.4L13.0537 12L18.6537 17.6L17.5999 18.6538L11.9999 13.0538L6.39994 18.6538Z" fill="#1D1D1D"/>
        </symbol>
    </defs>
</svg>



